<?xml version="1.0" encoding="UTF-8" standalone="no"?>
<svg
   width="40.443001mm"
   height="13.25mm"
   viewBox="0 0 40.443001 13.249997"
   version="1.1"
   id="svg25"
   sodipodi:docname="board.svg"
   inkscape:version="1.1.2 (0a00cf5339, 2022-02-04)"
   xmlns:inkscape="http://www.inkscape.org/namespaces/inkscape"
   xmlns:sodipodi="http://sodipodi.sourceforge.net/DTD/sodipodi-0.dtd"
   xmlns="http://www.w3.org/2000/svg"
   xmlns:svg="http://www.w3.org/2000/svg">
  <sodipodi:namedview
     id="namedview27"
     pagecolor="#ffffff"
     bordercolor="#666666"
     borderopacity="1.0"
     inkscape:pageshadow="2"
     inkscape:pageopacity="0.0"
     inkscape:pagecheckerboard="0"
     inkscape:document-units="mm"
     showgrid="false"
     inkscape:zoom="4"
     inkscape:cx="73.625001"
     inkscape:cy="31.25"
     inkscape:window-width="1600"
     inkscape:window-height="868"
     inkscape:window-x="0"
     inkscape:window-y="0"
     inkscape:window-maximized="1"
     inkscape:current-layer="layer2"
     width="40.343mm"
     height="14.75mm"
     inkscape:snap-global="true"
     inkscape:showpageshadow="2"
     inkscape:deskcolor="#d1d1d1" />
  <defs
     id="defs7">
    <rect
       x="97.014984"
       y="13.309456"
       width="47.23291"
       height="23.560326"
       id="rect4621" />
    <pattern
       id="pins"
       width="2.54"
       height="8.4"
       patternUnits="userSpaceOnUse">
      <rect
         x=".5"
         width="1.2"
         height="1"
         fill="#ccc"
         rx=".1"
         id="rect2" />
      <rect
         x=".5"
         y="7.35"
         width="1.2"
         height="1"
         fill="#ccc"
         rx=".1"
         id="rect4" />
    </pattern>
    <pattern
       id="pins-6"
       width="2.54"
       height="8.4"
       patternUnits="userSpaceOnUse">
      <rect
         x=".5"
         width="1.2"
         height="1"
         fill="#ccc"
         rx=".1"
         id="rect2-7" />
      <rect
         x=".5"
         y="7.35"
         width="1.2"
         height="1"
         fill="#ccc"
         rx=".1"
         id="rect4-5" />
    </pattern>
  </defs>
  <g
     inkscape:groupmode="layer"
     id="layer1"
     inkscape:label="Background">
    <path
       id="rect9212"
       style="fill:#18477d;fill-opacity:1;stroke:#222222;stroke-width:0;stroke-opacity:1"
       d="M 0.1000005,0 V 13.249837 H 40.442757 V 0 Z M 1.6234217,0.15916341 A 1.3265822,1.3738803 0 0 1 2.9499557,1.5332397 1.3265822,1.3738803 0 0 1 1.6234217,2.9073161 1.3265822,1.3738803 0 0 1 0.29688771,1.5332397 1.3265822,1.3738803 0 0 1 1.6234217,0.15916341 Z M 38.895566,0.19016927 A 1.3265822,1.3738803 0 0 1 40.222099,1.5637288 1.3265822,1.3738803 0 0 1 38.895566,2.9378052 1.3265822,1.3738803 0 0 1 37.569031,1.5637288 1.3265822,1.3738803 0 0 1 38.895566,0.19016927 Z M 11.399053,0.44338379 A 0.8999995,0.8999995 0 0 1 12.299256,1.3430705 0.8999995,0.8999995 0 0 1 11.399053,2.2432739 0.8999995,0.8999995 0 0 1 10.498848,1.3430705 0.8999995,0.8999995 0 0 1 11.399053,0.44338379 Z m 5.084443,0.003617 A 0.8999995,0.8999995 0 0 1 17.383183,1.3472046 0.8999995,0.8999995 0 0 1 16.483496,2.247408 0.8999995,0.8999995 0 0 1 15.583294,1.3472046 0.8999995,0.8999995 0 0 1 16.483496,0.44700079 Z m 5.089612,0.002584 A 0.8999995,0.8999995 0 0 1 22.473311,1.3492716 0.8999995,0.8999995 0 0 1 21.573108,2.2494751 0.8999995,0.8999995 0 0 1 20.672905,1.3492716 0.8999995,0.8999995 0 0 1 21.573108,0.44958479 Z m 5.111316,0.004134 A 0.8999995,0.8999995 0 0 1 27.584111,1.3539225 0.8999995,0.8999995 0 0 1 26.684424,2.2536092 0.8999995,0.8999995 0 0 1 25.78422,1.3539225 0.8999995,0.8999995 0 0 1 26.684424,0.45371879 Z m 2.542997,0.005684 A 0.8999995,0.8999995 0 0 1 30.127108,1.3596069 0.8999995,0.8999995 0 0 1 29.227421,2.2592936 0.8999995,0.8999995 0 0 1 28.327218,1.3596069 0.8999995,0.8999995 0 0 1 29.227421,0.45940279 Z M 13.943084,0.4619873 A 0.8999995,0.8999995 0 0 1 14.843287,1.361674 0.8999995,0.8999995 0 0 1 13.943084,2.2618774 0.8999995,0.8999995 0 0 1 13.04288,1.361674 0.8999995,0.8999995 0 0 1 13.943084,0.4619873 Z m 10.194208,0.003617 a 0.8999995,0.8999995 0 0 1 0.900204,0.9002038 0.8999995,0.8999995 0 0 1 -0.900204,0.8996867 0.8999995,0.8999995 0 0 1 -0.900203,-0.8996867 0.8999995,0.8999995 0 0 1 0.900203,-0.9002038 z m -5.107697,0.004134 A 0.8999995,0.8999995 0 0 1 19.929797,1.3694255 0.8999995,0.8999995 0 0 1 19.029595,2.2696289 0.8999995,0.8999995 0 0 1 18.129908,1.3694255 0.8999995,0.8999995 0 0 1 19.029595,0.4697383 Z M 31.837598,10.999845 a 0.8999995,0.8999995 0 0 1 0.899686,0.900204 0.8999995,0.8999995 0 0 1 -0.899686,0.900203 0.8999995,0.8999995 0 0 1 -0.900204,-0.900203 0.8999995,0.8999995 0 0 1 0.900204,-0.900204 z m 5.079276,0.0036 a 0.8999995,0.8999995 0 0 1 0.900204,0.900203 0.8999995,0.8999995 0 0 1 -0.900204,0.899687 0.8999995,0.8999995 0 0 1 -0.899687,-0.899687 0.8999995,0.8999995 0 0 1 0.899687,-0.900203 z m -2.565218,0.02015 a 0.8999995,0.8999995 0 0 1 0.900204,0.899686 0.8999995,0.8999995 0 0 1 -0.900204,0.900204 0.8999995,0.8999995 0 0 1 -0.899687,-0.900204 0.8999995,0.8999995 0 0 1 0.899687,-0.899686 z m 5.107182,0.0026 a 0.8999995,0.8999995 0 0 1 0.900204,0.900204 0.8999995,0.8999995 0 0 1 -0.900204,0.899686 0.8999995,0.8999995 0 0 1 -0.899687,-0.899686 0.8999995,0.8999995 0 0 1 0.899687,-0.900204 z m -28.070637,0.01705 a 0.8999995,0.8999995 0 0 1 0.900202,0.900203 0.8999995,0.8999995 0 0 1 -0.900202,0.899687 0.8999995,0.8999995 0 0 1 -0.899687,-0.899687 0.8999995,0.8999995 0 0 1 0.899687,-0.900203 z m 5.084443,0.0041 a 0.8999995,0.8999995 0 0 1 0.900203,0.899686 0.8999995,0.8999995 0 0 1 -0.900203,0.900204 0.8999995,0.8999995 0 0 1 -0.899687,-0.900204 0.8999995,0.8999995 0 0 1 0.899687,-0.899686 z m -10.1880081,0.0021 a 0.8999995,0.8999995 0 0 1 0.8996867,0.900203 0.8999995,0.8999995 0 0 1 -0.8996867,0.899687 0.8999995,0.8999995 0 0 1 -0.9002034,-0.899687 0.8999995,0.8999995 0 0 1 0.9002034,-0.900203 z m 15.2781371,0 a 0.8999995,0.8999995 0 0 1 0.899687,0.900203 0.8999995,0.8999995 0 0 1 -0.899687,0.899687 0.8999995,0.8999995 0 0 1 -0.900204,-0.899687 0.8999995,0.8999995 0 0 1 0.900204,-0.900203 z m -17.8185505,0.0026 a 0.8999995,0.8999995 0 0 1 0.8996867,0.900203 0.8999995,0.8999995 0 0 1 -0.8996867,0.899687 0.8999995,0.8999995 0 0 1 -0.9002034,-0.899687 0.8999995,0.8999995 0 0 1 0.9002034,-0.900203 z m 22.9293495,0.0015 a 0.8999995,0.8999995 0 0 1 0.900203,0.900203 0.8999995,0.8999995 0 0 1 -0.900203,0.900204 0.8999995,0.8999995 0 0 1 -0.900204,-0.900204 0.8999995,0.8999995 0 0 1 0.900204,-0.900203 z M 8.849854,11.054106 A 0.8999995,0.8999995 0 0 1 9.7495407,11.954309 0.8999995,0.8999995 0 0 1 8.849854,12.854513 0.8999995,0.8999995 0 0 1 7.9496506,11.954309 0.8999995,0.8999995 0 0 1 8.849854,11.054106 Z m -7.6444946,5.16e-4 A 0.8999995,0.8999995 0 0 1 2.1050461,11.954309 0.8999995,0.8999995 0 0 1 1.2053594,12.854513 0.8999995,0.8999995 0 0 1 0.30515594,11.954309 0.8999995,0.8999995 0 0 1 1.2053594,11.054622 Z m 28.0112096,0.0047 a 0.8999995,0.8999995 0 0 1 0.900203,0.900204 0.8999995,0.8999995 0 0 1 -0.900203,0.900203 0.8999995,0.8999995 0 0 1 -0.899687,-0.900203 0.8999995,0.8999995 0 0 1 0.899687,-0.900204 z m -15.283821,0.0026 a 0.8999995,0.8999995 0 0 1 0.899687,0.900204 0.8999995,0.8999995 0 0 1 -0.899687,0.899686 0.8999995,0.8999995 0 0 1 -0.900203,-0.899686 0.8999995,0.8999995 0 0 1 0.900203,-0.900204 z m 10.193692,0.0036 a 0.8999995,0.8999995 0 0 1 0.900204,0.900204 0.8999995,0.8999995 0 0 1 -0.900204,0.899687 0.8999995,0.8999995 0 0 1 -0.899686,-0.899687 0.8999995,0.8999995 0 0 1 0.899686,-0.900204 z m -5.107181,0.0041 a 0.8999995,0.8999995 0 0 1 0.899686,0.900203 0.8999995,0.8999995 0 0 1 -0.899686,0.899687 0.8999995,0.8999995 0 0 1 -0.900203,-0.899687 0.8999995,0.8999995 0 0 1 0.900203,-0.900203 z" />
    <ellipse
       style="fill:#5e5e5e;fill-opacity:0;stroke:#7e7e7e;stroke-width:0.3;stroke-dasharray:none;stroke-opacity:1"
       id="path1883"
       cx="36.917767"
       cy="11.900342"
       rx="0.80440354"
       ry="0.80440331" />
    <ellipse
       style="fill:#5e5e5e;fill-opacity:0;stroke:#7e7e7e;stroke-width:0.3;stroke-dasharray:none;stroke-opacity:1"
       id="path1883-3"
       cx="39.457577"
       cy="11.925212"
       rx="0.80440354"
       ry="0.80440331" />
    <ellipse
       style="fill:#5e5e5e;fill-opacity:0;stroke:#7e7e7e;stroke-width:0.3;stroke-dasharray:none;stroke-opacity:1"
       id="path1883-6"
       cx="34.355145"
       cy="11.921487"
       rx="0.80440354"
       ry="0.80440331" />
    <ellipse
       style="fill:#5e5e5e;fill-opacity:0;stroke:#7e7e7e;stroke-width:0.3;stroke-dasharray:none;stroke-opacity:1"
       id="path1883-7"
       cx="31.839458"
       cy="11.900122"
       rx="0.80440354"
       ry="0.80440331" />
    <ellipse
       style="fill:#5e5e5e;fill-opacity:0;stroke:#7e7e7e;stroke-width:0.3;stroke-dasharray:none;stroke-opacity:1"
       id="path1883-5"
       cx="29.218699"
       cy="11.961189"
       rx="0.80440354"
       ry="0.80440331" />
    <ellipse
       style="fill:#5e5e5e;fill-opacity:0;stroke:#7e7e7e;stroke-width:0.3;stroke-dasharray:none;stroke-opacity:1"
       id="path1883-5-3"
       cx="26.677742"
       cy="11.951081"
       rx="0.80440354"
       ry="0.80440331" />
    <ellipse
       style="fill:#5e5e5e;fill-opacity:0;stroke:#7e7e7e;stroke-width:0.3;stroke-dasharray:none;stroke-opacity:1"
       id="path1883-5-3-5"
       cx="24.125719"
       cy="11.965577"
       rx="0.80440354"
       ry="0.80440331" />
    <ellipse
       style="fill:#5e5e5e;fill-opacity:0;stroke:#7e7e7e;stroke-width:0.3;stroke-dasharray:none;stroke-opacity:1"
       id="path1883-5-3-5-6"
       cx="21.561312"
       cy="11.949921"
       rx="0.80440354"
       ry="0.80440331" />
    <ellipse
       style="fill:#5e5e5e;fill-opacity:0;stroke:#7e7e7e;stroke-width:0.3;stroke-dasharray:none;stroke-opacity:1"
       id="path1883-5-3-5-6-2"
       cx="19.025618"
       cy="11.972347"
       rx="0.80440354"
       ry="0.80440331" />
    <ellipse
       style="fill:#5e5e5e;fill-opacity:0;stroke:#7e7e7e;stroke-width:0.3;stroke-dasharray:none;stroke-opacity:1"
       id="path1883-5-3-5-6-2-9"
       cx="16.474785"
       cy="11.947514"
       rx="0.80440354"
       ry="0.80440331" />
    <ellipse
       style="fill:#5e5e5e;fill-opacity:0;stroke:#7e7e7e;stroke-width:0.3;stroke-dasharray:none;stroke-opacity:1"
       id="path1883-5-3-5-6-2-9-1"
       cx="13.933842"
       cy="11.958934"
       rx="0.80440354"
       ry="0.80440331" />
    <ellipse
       style="fill:#5e5e5e;fill-opacity:0;stroke:#7e7e7e;stroke-width:0.3;stroke-dasharray:none;stroke-opacity:1"
       id="path1883-5-3-5-6-2-9-1-2"
       cx="11.391344"
       cy="11.94603"
       rx="0.80440354"
       ry="0.80440331" />
    <ellipse
       style="fill:#5e5e5e;fill-opacity:0;stroke:#7e7e7e;stroke-width:0.3;stroke-dasharray:none;stroke-opacity:1"
       id="path1883-5-3-5-6-2-9-1-2-7"
       cx="8.8511877"
       cy="11.950186"
       rx="0.80440354"
       ry="0.80440331" />
    <ellipse
       style="fill:#5e5e5e;fill-opacity:0;stroke:#7e7e7e;stroke-width:0.3;stroke-dasharray:none;stroke-opacity:1"
       id="path1883-5-3-5-6-2-9-1-2-7-0"
       cx="6.2866759"
       cy="11.943342"
       rx="0.80440354"
       ry="0.80440331" />
    <ellipse
       style="fill:#5e5e5e;fill-opacity:0;stroke:#7e7e7e;stroke-width:0.3;stroke-dasharray:none;stroke-opacity:1"
       id="path1883-5-3-5-6-2-9-1-2-7-0-9"
       cx="3.7428281"
       cy="11.958393"
       rx="0.80440354"
       ry="0.80440331" />
    <ellipse
       style="fill:#5e5e5e;fill-opacity:0;stroke:#7e7e7e;stroke-width:0.3;stroke-dasharray:none;stroke-opacity:1"
       id="path1883-5-3-5-6-2-9-1-2-7-0-9-3"
       cx="1.2067378"
       cy="11.953883"
       rx="0.80440354"
       ry="0.80440331" />
    <ellipse
       style="fill:#5e5e5e;fill-opacity:0;stroke:#7e7e7e;stroke-width:0.3;stroke-dasharray:none;stroke-opacity:1"
       id="path1883-5-3-5-6-2-9-1-2-7-0-9-6"
       cx="29.226749"
       cy="1.3618501"
       rx="0.80440354"
       ry="0.80440331" />
    <ellipse
       style="fill:#5e5e5e;fill-opacity:0;stroke:#7e7e7e;stroke-width:0.3;stroke-dasharray:none;stroke-opacity:1"
       id="path1883-5-3-5-6-2-9-1-2-7-0-9-6-0"
       cx="26.687641"
       cy="1.355938"
       rx="0.80440354"
       ry="0.80440331" />
    <ellipse
       style="fill:#5e5e5e;fill-opacity:0;stroke:#7e7e7e;stroke-width:0.3;stroke-dasharray:none;stroke-opacity:1"
       id="path1883-5-3-5-6-2-9-1-2-7-0-9-6-0-6"
       cx="24.139317"
       cy="1.3626301"
       rx="0.80440354"
       ry="0.80440331" />
    <ellipse
       style="fill:#5e5e5e;fill-opacity:0;stroke:#7e7e7e;stroke-width:0.3;stroke-dasharray:none;stroke-opacity:1"
       id="path1883-5-3-5-6-2-9-1-2-7-0-9-6-0-6-2"
       cx="21.567707"
       cy="1.3488762"
       rx="0.80440354"
       ry="0.80440331" />
  </g>
  <g
     inkscape:groupmode="layer"
     id="layer2"
     inkscape:label="ForeGround">
    <rect
       style="fill:#000000;stroke:#000000;stroke-width:0"
       id="rect1875"
       width="4.0411015"
       height="5.7612739"
       x="18.352032"
       y="3.7200935" />
    <text
       xml:space="preserve"
       transform="scale(0.26458333)"
       id="text4619"
       style="font-size:5.33333px;line-height:1.25;font-family:sans-serif;-inkscape-font-specification:'sans-serif, Normal';white-space:pre;shape-inside:url(#rect4621);display:inline;fill:#000000;stroke:#000000;stroke-width:0" />
    <text
       xml:space="preserve"
       style="font-size:1.41111px;line-height:1.25;font-family:sans-serif;-inkscape-font-specification:'sans-serif, Normal';fill:#ffffff;stroke:#ffffff;stroke-width:0"
       x="-9.8196182"
       y="36.625862"
       id="text9137"
       transform="rotate(-90)"><tspan
         sodipodi:role="line"
         id="tspan9135"
         style="fill:#ffffff;stroke:#ffffff;stroke-width:0"
         x="-9.8196182"
         y="36.625862">   16-Channel</tspan><tspan
         sodipodi:role="line"
         style="fill:#ffffff;stroke:#ffffff;stroke-width:0"
         x="-9.8196182"
         y="38.389751"
         id="tspan18105">   Analog</tspan><tspan
         sodipodi:role="line"
         style="fill:#ffffff;stroke:#ffffff;stroke-width:0"
         x="-9.8196182"
         y="40.153637"
         id="tspan18107" /></text>
    <text
       xml:space="preserve"
       style="font-style:normal;font-variant:normal;font-weight:normal;font-stretch:normal;font-size:0.622162px;line-height:1.25;font-family:sans-serif;-inkscape-font-specification:'sans-serif, Normal';font-variant-ligatures:normal;font-variant-caps:normal;font-variant-numeric:normal;font-variant-east-asian:normal;fill:#808000;stroke:#808000;stroke-width:0"
       x="-7.8047624"
       y="19.856792"
       id="text44495"
       transform="rotate(-90)"><tspan
         sodipodi:role="line"
         id="tspan44493"
         style="font-style:normal;font-variant:normal;font-weight:normal;font-stretch:normal;font-size:0.622162px;font-family:sans-serif;-inkscape-font-specification:'sans-serif, Normal';font-variant-ligatures:normal;font-variant-caps:normal;font-variant-numeric:normal;font-variant-east-asian:normal;stroke-width:0"
         x="-7.8047624"
         y="19.856792">HP4067</tspan><tspan
         sodipodi:role="line"
         style="font-style:normal;font-variant:normal;font-weight:normal;font-stretch:normal;font-size:0.622162px;font-family:sans-serif;-inkscape-font-specification:'sans-serif, Normal';font-variant-ligatures:normal;font-variant-caps:normal;font-variant-numeric:normal;font-variant-east-asian:normal;stroke-width:0"
         x="-7.8047624"
         y="20.634495"
         id="tspan56519">63KG4</tspan><tspan
         sodipodi:role="line"
         style="font-style:normal;font-variant:normal;font-weight:normal;font-stretch:normal;font-size:0.622162px;font-family:sans-serif;-inkscape-font-specification:'sans-serif, Normal';font-variant-ligatures:normal;font-variant-caps:normal;font-variant-numeric:normal;font-variant-east-asian:normal;stroke-width:0"
         x="-7.8047624"
         y="21.412197"
         id="tspan59717">A622</tspan></text>
    <path
       style="fill:#b3b3b3;stroke:#b3b3b3;stroke-width:0.25669;stroke-miterlimit:4;stroke-dasharray:none"
       d="m 17.314007,9.2209843 h 1.034397"
       id="path66796"
       sodipodi:nodetypes="cc" />
    <path
       style="fill:#b3b3b3;stroke:#b3b3b3;stroke-width:0.25669;stroke-miterlimit:4;stroke-dasharray:none"
       d="m 17.312295,8.7556255 h 1.034398"
       id="path66796-6"
       sodipodi:nodetypes="cc" />
    <path
       style="fill:#b3b3b3;stroke:#b3b3b3;stroke-width:0.25669;stroke-miterlimit:4;stroke-dasharray:none"
       d="m 17.312818,8.271778 h 1.0344"
       id="path66796-6-9"
       sodipodi:nodetypes="cc" />
    <path
       style="fill:#b3b3b3;stroke:#b3b3b3;stroke-width:0.25669;stroke-miterlimit:4;stroke-dasharray:none"
       d="m 17.311958,7.7888666 h 1.034396"
       id="path66796-8"
       sodipodi:nodetypes="cc" />
    <path
       style="fill:#b3b3b3;stroke:#b3b3b3;stroke-width:0.25669;stroke-miterlimit:4;stroke-dasharray:none"
       d="m 17.310247,7.323508 h 1.034396"
       id="path66796-6-7"
       sodipodi:nodetypes="cc" />
    <path
       style="fill:#b3b3b3;stroke:#b3b3b3;stroke-width:0.25669;stroke-miterlimit:4;stroke-dasharray:none"
       d="m 17.310769,6.8396604 h 1.034398"
       id="path66796-6-9-2"
       sodipodi:nodetypes="cc" />
    <path
       style="fill:#b3b3b3;stroke:#b3b3b3;stroke-width:0.25669;stroke-miterlimit:4;stroke-dasharray:none"
       d="m 17.318408,6.3500414 h 1.034398"
       id="path66796-82"
       sodipodi:nodetypes="cc" />
    <path
       style="fill:#b3b3b3;stroke:#b3b3b3;stroke-width:0.25669;stroke-miterlimit:4;stroke-dasharray:none"
       d="m 17.316696,5.8846826 h 1.034399"
       id="path66796-6-99"
       sodipodi:nodetypes="cc" />
    <path
       style="fill:#b3b3b3;stroke:#b3b3b3;stroke-width:0.25669;stroke-miterlimit:4;stroke-dasharray:none"
       d="m 17.317221,5.400835 h 1.034397"
       id="path66796-6-9-6"
       sodipodi:nodetypes="cc" />
    <path
       style="fill:#b3b3b3;stroke:#b3b3b3;stroke-width:0.25669;stroke-miterlimit:4;stroke-dasharray:none"
       d="m 17.316358,4.9179237 h 1.034398"
       id="path66796-8-0"
       sodipodi:nodetypes="cc" />
    <path
       style="fill:#b3b3b3;stroke:#b3b3b3;stroke-width:0.25669;stroke-miterlimit:4;stroke-dasharray:none"
       d="m 17.314646,4.452565 h 1.0344"
       id="path66796-6-7-2"
       sodipodi:nodetypes="cc" />
    <path
       style="fill:#b3b3b3;stroke:#b3b3b3;stroke-width:0.25669;stroke-miterlimit:4;stroke-dasharray:none"
       d="m 17.315172,3.9687173 h 1.034397"
       id="path66796-6-9-2-7"
       sodipodi:nodetypes="cc" />
    <path
       style="fill:#b3b3b3;stroke:#b3b3b3;stroke-width:0.25669;stroke-miterlimit:4;stroke-dasharray:none"
       d="m 22.393798,9.2209843 h 1.034398"
       id="path66796-5"
       sodipodi:nodetypes="cc" />
    <path
       style="fill:#b3b3b3;stroke:#b3b3b3;stroke-width:0.25669;stroke-miterlimit:4;stroke-dasharray:none"
       d="m 22.392087,8.7556254 h 1.034397"
       id="path66796-6-8"
       sodipodi:nodetypes="cc" />
    <path
       style="fill:#b3b3b3;stroke:#b3b3b3;stroke-width:0.25669;stroke-miterlimit:4;stroke-dasharray:none"
       d="m 22.39261,8.271778 h 1.034401"
       id="path66796-6-9-7"
       sodipodi:nodetypes="cc" />
    <path
       style="fill:#b3b3b3;stroke:#b3b3b3;stroke-width:0.25669;stroke-miterlimit:4;stroke-dasharray:none"
       d="m 22.391748,7.7888666 h 1.034398"
       id="path66796-8-04"
       sodipodi:nodetypes="cc" />
    <path
       style="fill:#b3b3b3;stroke:#b3b3b3;stroke-width:0.25669;stroke-miterlimit:4;stroke-dasharray:none"
       d="m 22.390038,7.323508 h 1.034396"
       id="path66796-6-7-8"
       sodipodi:nodetypes="cc" />
    <path
       style="fill:#b3b3b3;stroke:#b3b3b3;stroke-width:0.25669;stroke-miterlimit:4;stroke-dasharray:none"
       d="m 22.39056,6.8396604 h 1.034399"
       id="path66796-6-9-2-0"
       sodipodi:nodetypes="cc" />
    <path
       style="fill:#b3b3b3;stroke:#b3b3b3;stroke-width:0.25669;stroke-miterlimit:4;stroke-dasharray:none"
       d="m 22.398201,6.3500414 h 1.034397"
       id="path66796-82-4"
       sodipodi:nodetypes="cc" />
    <path
       style="fill:#b3b3b3;stroke:#b3b3b3;stroke-width:0.25669;stroke-miterlimit:4;stroke-dasharray:none"
       d="m 22.396488,5.8846826 h 1.034398"
       id="path66796-6-99-2"
       sodipodi:nodetypes="cc" />
    <path
       style="fill:#b3b3b3;stroke:#b3b3b3;stroke-width:0.25669;stroke-miterlimit:4;stroke-dasharray:none"
       d="m 22.397013,5.400835 h 1.034396"
       id="path66796-6-9-6-9"
       sodipodi:nodetypes="cc" />
    <path
       style="fill:#b3b3b3;stroke:#b3b3b3;stroke-width:0.25669;stroke-miterlimit:4;stroke-dasharray:none"
       d="m 22.396149,4.9179237 h 1.034399"
       id="path66796-8-0-6"
       sodipodi:nodetypes="cc" />
    <path
       style="fill:#b3b3b3;stroke:#b3b3b3;stroke-width:0.25669;stroke-miterlimit:4;stroke-dasharray:none"
       d="m 22.394438,4.452565 h 1.034399"
       id="path66796-6-7-2-1"
       sodipodi:nodetypes="cc" />
    <path
       style="fill:#b3b3b3;stroke:#b3b3b3;stroke-width:0.25669;stroke-miterlimit:4;stroke-dasharray:none"
       d="m 22.394963,3.9687173 h 1.034398"
       id="path66796-6-9-2-7-0"
       sodipodi:nodetypes="cc" />
    <text
       xml:space="preserve"
       style="font-style:normal;font-variant:normal;font-weight:normal;font-stretch:normal;font-size:1.03786px;line-height:1.25;font-family:sans-serif;-inkscape-font-specification:'sans-serif, Normal';font-variant-ligatures:normal;font-variant-caps:normal;font-variant-numeric:normal;font-variant-east-asian:normal;fill:#ffffff;stroke:#ffffff;stroke-width:0;stroke-miterlimit:4;stroke-dasharray:none"
       x="-11.107643"
       y="1.5698698"
       id="text74019"
       transform="matrix(0,-0.98066185,1.0197195,0,0,0)"><tspan
         sodipodi:role="line"
         id="tspan74017"
         style="font-style:normal;font-variant:normal;font-weight:normal;font-stretch:normal;font-size:1.03786px;font-family:sans-serif;-inkscape-font-specification:'sans-serif, Normal';font-variant-ligatures:normal;font-variant-caps:normal;font-variant-numeric:normal;font-variant-east-asian:normal;fill:#ffffff;stroke:#ffffff;stroke-width:0;stroke-miterlimit:4;stroke-dasharray:none"
         x="-11.107643"
         y="1.5698698">C15</tspan></text>
    <text
       xml:space="preserve"
       style="font-style:normal;font-variant:normal;font-weight:normal;font-stretch:normal;font-size:1.03786px;line-height:1.25;font-family:sans-serif;-inkscape-font-specification:'sans-serif, Normal';font-variant-ligatures:normal;font-variant-caps:normal;font-variant-numeric:normal;font-variant-east-asian:normal;fill:#ffffff;stroke:#ffffff;stroke-width:0;stroke-miterlimit:4;stroke-dasharray:none"
       x="-11.117131"
       y="4.0644217"
       id="text74019-2"
       transform="matrix(0,-0.98066185,1.0197195,0,0,0)"><tspan
         sodipodi:role="line"
         id="tspan74017-2"
         style="font-style:normal;font-variant:normal;font-weight:normal;font-stretch:normal;font-size:1.03786px;font-family:sans-serif;-inkscape-font-specification:'sans-serif, Normal';font-variant-ligatures:normal;font-variant-caps:normal;font-variant-numeric:normal;font-variant-east-asian:normal;fill:#ffffff;stroke:#ffffff;stroke-width:0;stroke-miterlimit:4;stroke-dasharray:none"
         x="-11.117131"
         y="4.0644217">C14</tspan></text>
    <text
       xml:space="preserve"
       style="font-style:normal;font-variant:normal;font-weight:normal;font-stretch:normal;font-size:1.03786px;line-height:1.25;font-family:sans-serif;-inkscape-font-specification:'sans-serif, Normal';font-variant-ligatures:normal;font-variant-caps:normal;font-variant-numeric:normal;font-variant-east-asian:normal;fill:#ffffff;stroke:#ffffff;stroke-width:0;stroke-miterlimit:4;stroke-dasharray:none"
       x="-11.108225"
       y="6.5517573"
       id="text74019-0"
       transform="matrix(0,-0.98066185,1.0197195,0,0,0)"><tspan
         sodipodi:role="line"
         id="tspan74017-5"
         style="font-style:normal;font-variant:normal;font-weight:normal;font-stretch:normal;font-size:1.03786px;font-family:sans-serif;-inkscape-font-specification:'sans-serif, Normal';font-variant-ligatures:normal;font-variant-caps:normal;font-variant-numeric:normal;font-variant-east-asian:normal;fill:#ffffff;stroke:#ffffff;stroke-width:0;stroke-miterlimit:4;stroke-dasharray:none"
         x="-11.108225"
         y="6.5517573">C13</tspan></text>
    <text
       xml:space="preserve"
       style="font-style:normal;font-variant:normal;font-weight:normal;font-stretch:normal;font-size:1.03786px;line-height:1.25;font-family:sans-serif;-inkscape-font-specification:'sans-serif, Normal';font-variant-ligatures:normal;font-variant-caps:normal;font-variant-numeric:normal;font-variant-east-asian:normal;fill:#ffffff;stroke:#ffffff;stroke-width:0;stroke-miterlimit:4;stroke-dasharray:none"
       x="-11.107227"
       y="9.0763645"
       id="text74019-0-5"
       transform="matrix(0,-0.98066185,1.0197195,0,0,0)"><tspan
         sodipodi:role="line"
         id="tspan74017-5-2"
         style="font-style:normal;font-variant:normal;font-weight:normal;font-stretch:normal;font-size:1.03786px;font-family:sans-serif;-inkscape-font-specification:'sans-serif, Normal';font-variant-ligatures:normal;font-variant-caps:normal;font-variant-numeric:normal;font-variant-east-asian:normal;fill:#ffffff;stroke:#ffffff;stroke-width:0;stroke-miterlimit:4;stroke-dasharray:none"
         x="-11.107227"
         y="9.0763645">C12</tspan></text>
    <text
       xml:space="preserve"
       style="font-style:normal;font-variant:normal;font-weight:normal;font-stretch:normal;font-size:1.03786px;line-height:1.25;font-family:sans-serif;-inkscape-font-specification:'sans-serif, Normal';font-variant-ligatures:normal;font-variant-caps:normal;font-variant-numeric:normal;font-variant-east-asian:normal;fill:#ffffff;stroke:#ffffff;stroke-width:0;stroke-miterlimit:4;stroke-dasharray:none"
       x="-11.103992"
       y="11.560298"
       id="text74019-0-9"
       transform="matrix(0,-0.98066185,1.0197195,0,0,0)"><tspan
         sodipodi:role="line"
         id="tspan74017-5-0"
         style="font-style:normal;font-variant:normal;font-weight:normal;font-stretch:normal;font-size:1.03786px;font-family:sans-serif;-inkscape-font-specification:'sans-serif, Normal';font-variant-ligatures:normal;font-variant-caps:normal;font-variant-numeric:normal;font-variant-east-asian:normal;fill:#ffffff;stroke:#ffffff;stroke-width:0;stroke-miterlimit:4;stroke-dasharray:none"
         x="-11.103992"
         y="11.560298">C11</tspan></text>
    <text
       xml:space="preserve"
       style="font-style:normal;font-variant:normal;font-weight:normal;font-stretch:normal;font-size:1.03786px;line-height:1.25;font-family:sans-serif;-inkscape-font-specification:'sans-serif, Normal';font-variant-ligatures:normal;font-variant-caps:normal;font-variant-numeric:normal;font-variant-east-asian:normal;fill:#ffffff;stroke:#ffffff;stroke-width:0;stroke-miterlimit:4;stroke-dasharray:none"
       x="-11.111798"
       y="14.034846"
       id="text74019-0-2"
       transform="matrix(0,-0.98066185,1.0197195,0,0,0)"><tspan
         sodipodi:role="line"
         id="tspan74017-5-8"
         style="font-style:normal;font-variant:normal;font-weight:normal;font-stretch:normal;font-size:1.03786px;font-family:sans-serif;-inkscape-font-specification:'sans-serif, Normal';font-variant-ligatures:normal;font-variant-caps:normal;font-variant-numeric:normal;font-variant-east-asian:normal;fill:#ffffff;stroke:#ffffff;stroke-width:0;stroke-miterlimit:4;stroke-dasharray:none"
         x="-11.111798"
         y="14.034846">C10</tspan></text>
    <text
       xml:space="preserve"
       style="font-style:normal;font-variant:normal;font-weight:normal;font-stretch:normal;font-size:1.03786px;line-height:1.25;font-family:sans-serif;-inkscape-font-specification:'sans-serif, Normal';font-variant-ligatures:normal;font-variant-caps:normal;font-variant-numeric:normal;font-variant-east-asian:normal;fill:#ffffff;stroke:#ffffff;stroke-width:0;stroke-miterlimit:4;stroke-dasharray:none"
       x="-11.110684"
       y="19.046497"
       id="text74019-0-3"
       transform="matrix(0,-0.98066185,1.0197195,0,0,0)"><tspan
         sodipodi:role="line"
         id="tspan74017-5-80"
         style="font-style:normal;font-variant:normal;font-weight:normal;font-stretch:normal;font-size:1.03786px;font-family:sans-serif;-inkscape-font-specification:'sans-serif, Normal';font-variant-ligatures:normal;font-variant-caps:normal;font-variant-numeric:normal;font-variant-east-asian:normal;fill:#ffffff;stroke:#ffffff;stroke-width:0;stroke-miterlimit:4;stroke-dasharray:none"
         x="-11.110684"
         y="19.046497">C8</tspan></text>
    <text
       xml:space="preserve"
       style="font-style:normal;font-variant:normal;font-weight:normal;font-stretch:normal;font-size:1.03786px;line-height:1.25;font-family:sans-serif;-inkscape-font-specification:'sans-serif, Normal';font-variant-ligatures:normal;font-variant-caps:normal;font-variant-numeric:normal;font-variant-east-asian:normal;fill:#ffffff;stroke:#ffffff;stroke-width:0;stroke-miterlimit:4;stroke-dasharray:none"
       x="-11.110941"
       y="21.52191"
       id="text74019-0-3-99"
       transform="matrix(0,-0.98066185,1.0197195,0,0,0)"><tspan
         sodipodi:role="line"
         id="tspan74017-5-80-4"
         style="font-style:normal;font-variant:normal;font-weight:normal;font-stretch:normal;font-size:1.03786px;font-family:sans-serif;-inkscape-font-specification:'sans-serif, Normal';font-variant-ligatures:normal;font-variant-caps:normal;font-variant-numeric:normal;font-variant-east-asian:normal;fill:#ffffff;stroke:#ffffff;stroke-width:0;stroke-miterlimit:4;stroke-dasharray:none"
         x="-11.110941"
         y="21.52191">C7</tspan></text>
    <text
       xml:space="preserve"
       style="font-style:normal;font-variant:normal;font-weight:normal;font-stretch:normal;font-size:1.03786px;line-height:1.25;font-family:sans-serif;-inkscape-font-specification:'sans-serif, Normal';font-variant-ligatures:normal;font-variant-caps:normal;font-variant-numeric:normal;font-variant-east-asian:normal;fill:#ffffff;stroke:#ffffff;stroke-width:0;stroke-miterlimit:4;stroke-dasharray:none"
       x="-11.108583"
       y="24.040857"
       id="text74019-0-3-5"
       transform="matrix(0,-0.98066185,1.0197195,0,0,0)"><tspan
         sodipodi:role="line"
         id="tspan74017-5-80-1"
         style="font-style:normal;font-variant:normal;font-weight:normal;font-stretch:normal;font-size:1.03786px;font-family:sans-serif;-inkscape-font-specification:'sans-serif, Normal';font-variant-ligatures:normal;font-variant-caps:normal;font-variant-numeric:normal;font-variant-east-asian:normal;fill:#ffffff;stroke:#ffffff;stroke-width:0;stroke-miterlimit:4;stroke-dasharray:none"
         x="-11.108583"
         y="24.040857">C6</tspan></text>
    <text
       xml:space="preserve"
       style="font-style:normal;font-variant:normal;font-weight:normal;font-stretch:normal;font-size:1.03786px;line-height:1.25;font-family:sans-serif;-inkscape-font-specification:'sans-serif, Normal';font-variant-ligatures:normal;font-variant-caps:normal;font-variant-numeric:normal;font-variant-east-asian:normal;fill:#ffffff;stroke:#ffffff;stroke-width:0;stroke-miterlimit:4;stroke-dasharray:none"
       x="-11.113044"
       y="26.548677"
       id="text74019-0-3-5-0"
       transform="matrix(0,-0.98066185,1.0197195,0,0,0)"><tspan
         sodipodi:role="line"
         id="tspan74017-5-80-1-3"
         style="font-style:normal;font-variant:normal;font-weight:normal;font-stretch:normal;font-size:1.03786px;font-family:sans-serif;-inkscape-font-specification:'sans-serif, Normal';font-variant-ligatures:normal;font-variant-caps:normal;font-variant-numeric:normal;font-variant-east-asian:normal;fill:#ffffff;stroke:#ffffff;stroke-width:0;stroke-miterlimit:4;stroke-dasharray:none"
         x="-11.113044"
         y="26.548677">C5</tspan></text>
    <text
       xml:space="preserve"
       style="font-style:normal;font-variant:normal;font-weight:normal;font-stretch:normal;font-size:1.03786px;line-height:1.25;font-family:sans-serif;-inkscape-font-specification:'sans-serif, Normal';font-variant-ligatures:normal;font-variant-caps:normal;font-variant-numeric:normal;font-variant-east-asian:normal;fill:#ffffff;stroke:#ffffff;stroke-width:0;stroke-miterlimit:4;stroke-dasharray:none"
       x="-11.125834"
       y="29.073269"
       id="text74019-0-3-5-0-7"
       transform="matrix(0,-0.98066185,1.0197195,0,0,0)"><tspan
         sodipodi:role="line"
         id="tspan74017-5-80-1-3-8"
         style="font-style:normal;font-variant:normal;font-weight:normal;font-stretch:normal;font-size:1.03786px;font-family:sans-serif;-inkscape-font-specification:'sans-serif, Normal';font-variant-ligatures:normal;font-variant-caps:normal;font-variant-numeric:normal;font-variant-east-asian:normal;fill:#ffffff;stroke:#ffffff;stroke-width:0;stroke-miterlimit:4;stroke-dasharray:none"
         x="-11.125834"
         y="29.073269">C4</tspan></text>
    <text
       xml:space="preserve"
       style="font-style:normal;font-variant:normal;font-weight:normal;font-stretch:normal;font-size:1.03786px;line-height:1.25;font-family:sans-serif;-inkscape-font-specification:'sans-serif, Normal';font-variant-ligatures:normal;font-variant-caps:normal;font-variant-numeric:normal;font-variant-east-asian:normal;fill:#ffffff;stroke:#ffffff;stroke-width:0;stroke-miterlimit:4;stroke-dasharray:none"
       x="-11.120817"
       y="31.609842"
       id="text74019-0-3-5-0-7-8"
       transform="matrix(0,-0.98066185,1.0197195,0,0,0)"><tspan
         sodipodi:role="line"
         id="tspan74017-5-80-1-3-8-6"
         style="font-style:normal;font-variant:normal;font-weight:normal;font-stretch:normal;font-size:1.03786px;font-family:sans-serif;-inkscape-font-specification:'sans-serif, Normal';font-variant-ligatures:normal;font-variant-caps:normal;font-variant-numeric:normal;font-variant-east-asian:normal;fill:#ffffff;stroke:#ffffff;stroke-width:0;stroke-miterlimit:4;stroke-dasharray:none"
         x="-11.120817"
         y="31.609842">C3</tspan></text>
    <text
       xml:space="preserve"
       style="font-style:normal;font-variant:normal;font-weight:normal;font-stretch:normal;font-size:1.03786px;line-height:1.25;font-family:sans-serif;-inkscape-font-specification:'sans-serif, Normal';font-variant-ligatures:normal;font-variant-caps:normal;font-variant-numeric:normal;font-variant-east-asian:normal;fill:#ffffff;stroke:#ffffff;stroke-width:0;stroke-miterlimit:4;stroke-dasharray:none"
       x="-11.117758"
       y="34.078598"
       id="text74019-0-3-5-0-7-8-7"
       transform="matrix(0,-0.98066185,1.0197195,0,0,0)"><tspan
         sodipodi:role="line"
         id="tspan74017-5-80-1-3-8-6-5"
         style="font-style:normal;font-variant:normal;font-weight:normal;font-stretch:normal;font-size:1.03786px;font-family:sans-serif;-inkscape-font-specification:'sans-serif, Normal';font-variant-ligatures:normal;font-variant-caps:normal;font-variant-numeric:normal;font-variant-east-asian:normal;fill:#ffffff;stroke:#ffffff;stroke-width:0;stroke-miterlimit:4;stroke-dasharray:none"
         x="-11.117758"
         y="34.078598">C2</tspan></text>
    <text
       xml:space="preserve"
       style="font-style:normal;font-variant:normal;font-weight:normal;font-stretch:normal;font-size:1.03786px;line-height:1.25;font-family:sans-serif;-inkscape-font-specification:'sans-serif, Normal';font-variant-ligatures:normal;font-variant-caps:normal;font-variant-numeric:normal;font-variant-east-asian:normal;fill:#ffffff;stroke:#ffffff;stroke-width:0;stroke-miterlimit:4;stroke-dasharray:none"
       x="-11.123241"
       y="36.635914"
       id="text74019-0-3-5-0-7-8-7-9"
       transform="matrix(0,-0.98066185,1.0197195,0,0,0)"><tspan
         sodipodi:role="line"
         id="tspan74017-5-80-1-3-8-6-5-7"
         style="font-style:normal;font-variant:normal;font-weight:normal;font-stretch:normal;font-size:1.03786px;font-family:sans-serif;-inkscape-font-specification:'sans-serif, Normal';font-variant-ligatures:normal;font-variant-caps:normal;font-variant-numeric:normal;font-variant-east-asian:normal;fill:#ffffff;stroke:#ffffff;stroke-width:0;stroke-miterlimit:4;stroke-dasharray:none"
         x="-11.123241"
         y="36.635914">C1</tspan></text>
    <text
       xml:space="preserve"
       style="font-style:normal;font-variant:normal;font-weight:normal;font-stretch:normal;font-size:1.03786px;line-height:1.25;font-family:sans-serif;-inkscape-font-specification:'sans-serif, Normal';font-variant-ligatures:normal;font-variant-caps:normal;font-variant-numeric:normal;font-variant-east-asian:normal;fill:#ffffff;stroke:#ffffff;stroke-width:0;stroke-miterlimit:4;stroke-dasharray:none"
       x="-11.123585"
       y="39.114792"
       id="text74019-0-3-5-0-7-8-7-9-8"
       transform="matrix(0,-0.98066185,1.0197195,0,0,0)"><tspan
         sodipodi:role="line"
         id="tspan74017-5-80-1-3-8-6-5-7-5"
         style="font-style:normal;font-variant:normal;font-weight:normal;font-stretch:normal;font-size:1.03786px;font-family:sans-serif;-inkscape-font-specification:'sans-serif, Normal';font-variant-ligatures:normal;font-variant-caps:normal;font-variant-numeric:normal;font-variant-east-asian:normal;fill:#ffffff;stroke:#ffffff;stroke-width:0;stroke-miterlimit:4;stroke-dasharray:none"
         x="-11.123585"
         y="39.114792">C0</tspan></text>
    <text
       xml:space="preserve"
       style="font-style:normal;font-variant:normal;font-weight:normal;font-stretch:normal;font-size:1.03786px;line-height:1.25;font-family:sans-serif;-inkscape-font-specification:'sans-serif, Normal';font-variant-ligatures:normal;font-variant-caps:normal;font-variant-numeric:normal;font-variant-east-asian:normal;fill:#ffffff;stroke:#ffffff;stroke-width:0;stroke-miterlimit:4;stroke-dasharray:none"
       x="-11.105889"
       y="16.515621"
       id="text74019-0-3-9"
       transform="matrix(0,-0.98066185,1.0197195,0,0,0)"><tspan
         sodipodi:role="line"
         id="tspan74017-5-80-0"
         style="font-style:normal;font-variant:normal;font-weight:normal;font-stretch:normal;font-size:1.03786px;font-family:sans-serif;-inkscape-font-specification:'sans-serif, Normal';font-variant-ligatures:normal;font-variant-caps:normal;font-variant-numeric:normal;font-variant-east-asian:normal;fill:#ffffff;stroke:#ffffff;stroke-width:0;stroke-miterlimit:4;stroke-dasharray:none"
         x="-11.105889"
         y="16.515621">C9</tspan></text>
    <text
       xml:space="preserve"
       style="font-style:normal;font-variant:normal;font-weight:normal;font-stretch:normal;font-size:1.03786px;line-height:1.25;font-family:sans-serif;-inkscape-font-specification:'sans-serif, Normal';font-variant-ligatures:normal;font-variant-caps:normal;font-variant-numeric:normal;font-variant-east-asian:normal;fill:#ffffff;stroke:#ffffff;stroke-width:0;stroke-miterlimit:4;stroke-dasharray:none"
       x="-4.2577453"
       y="11.561094"
       id="text74019-0-9-8"
       transform="matrix(0,-0.98066184,1.0197195,0,0,0)"><tspan
         sodipodi:role="line"
         id="tspan74017-5-0-3"
         style="font-style:normal;font-variant:normal;font-weight:normal;font-stretch:normal;font-size:1.03786px;font-family:sans-serif;-inkscape-font-specification:'sans-serif, Normal';font-variant-ligatures:normal;font-variant-caps:normal;font-variant-numeric:normal;font-variant-east-asian:normal;fill:#ffffff;stroke:#ffffff;stroke-width:0;stroke-miterlimit:4;stroke-dasharray:none"
         x="-4.2577453"
         y="11.561094">SIG</tspan></text>
    <text
       xml:space="preserve"
       style="font-style:normal;font-variant:normal;font-weight:normal;font-stretch:normal;font-size:1.03786px;line-height:1.25;font-family:sans-serif;-inkscape-font-specification:'sans-serif, Normal';font-variant-ligatures:normal;font-variant-caps:normal;font-variant-numeric:normal;font-variant-east-asian:normal;fill:#ffffff;stroke:#ffffff;stroke-width:0;stroke-miterlimit:4;stroke-dasharray:none"
       x="-3.7105098"
       y="14.035641"
       id="text74019-0-2-7"
       transform="matrix(0,-0.98066184,1.0197195,0,0,0)"><tspan
         sodipodi:role="line"
         id="tspan74017-5-8-9"
         style="font-style:normal;font-variant:normal;font-weight:normal;font-stretch:normal;font-size:1.03786px;font-family:sans-serif;-inkscape-font-specification:'sans-serif, Normal';font-variant-ligatures:normal;font-variant-caps:normal;font-variant-numeric:normal;font-variant-east-asian:normal;fill:#ffffff;stroke:#ffffff;stroke-width:0;stroke-miterlimit:4;stroke-dasharray:none"
         x="-3.7105098"
         y="14.035641">S3</tspan></text>
    <text
       xml:space="preserve"
       style="font-style:normal;font-variant:normal;font-weight:normal;font-stretch:normal;font-size:1.03786px;line-height:1.25;font-family:sans-serif;-inkscape-font-specification:'sans-serif, Normal';font-variant-ligatures:normal;font-variant-caps:normal;font-variant-numeric:normal;font-variant-east-asian:normal;fill:#ffffff;stroke:#ffffff;stroke-width:0;stroke-miterlimit:4;stroke-dasharray:none"
       x="-3.6629267"
       y="19.047295"
       id="text74019-0-3-3"
       transform="matrix(0,-0.98066184,1.0197195,0,0,0)"><tspan
         sodipodi:role="line"
         id="tspan74017-5-80-7"
         style="font-style:normal;font-variant:normal;font-weight:normal;font-stretch:normal;font-size:1.03786px;font-family:sans-serif;-inkscape-font-specification:'sans-serif, Normal';font-variant-ligatures:normal;font-variant-caps:normal;font-variant-numeric:normal;font-variant-east-asian:normal;fill:#ffffff;stroke:#ffffff;stroke-width:0;stroke-miterlimit:4;stroke-dasharray:none"
         x="-3.6629267"
         y="19.047295">S1</tspan></text>
    <text
       xml:space="preserve"
       style="font-style:normal;font-variant:normal;font-weight:normal;font-stretch:normal;font-size:1.03786px;line-height:1.25;font-family:sans-serif;-inkscape-font-specification:'sans-serif, Normal';font-variant-ligatures:normal;font-variant-caps:normal;font-variant-numeric:normal;font-variant-east-asian:normal;fill:#ffffff;stroke:#ffffff;stroke-width:0;stroke-miterlimit:4;stroke-dasharray:none"
       x="-3.7096524"
       y="21.522707"
       id="text74019-0-3-99-8"
       transform="matrix(0,-0.98066184,1.0197195,0,0,0)"><tspan
         sodipodi:role="line"
         id="tspan74017-5-80-4-7"
         style="font-style:normal;font-variant:normal;font-weight:normal;font-stretch:normal;font-size:1.03786px;font-family:sans-serif;-inkscape-font-specification:'sans-serif, Normal';font-variant-ligatures:normal;font-variant-caps:normal;font-variant-numeric:normal;font-variant-east-asian:normal;fill:#ffffff;stroke:#ffffff;stroke-width:0;stroke-miterlimit:4;stroke-dasharray:none"
         x="-3.7096524"
         y="21.522707">S0</tspan></text>
    <text
       xml:space="preserve"
       style="font-style:normal;font-variant:normal;font-weight:normal;font-stretch:normal;font-size:1.03786px;line-height:1.25;font-family:sans-serif;-inkscape-font-specification:'sans-serif, Normal';font-variant-ligatures:normal;font-variant-caps:normal;font-variant-numeric:normal;font-variant-east-asian:normal;fill:#ffffff;stroke:#ffffff;stroke-width:0;stroke-miterlimit:4;stroke-dasharray:none"
       x="-3.8487134"
       y="24.031193"
       id="text74019-0-3-5-4"
       transform="matrix(0,-0.98066184,1.0197195,0,0,0)"><tspan
         sodipodi:role="line"
         id="tspan74017-5-80-1-1"
         style="font-style:normal;font-variant:normal;font-weight:normal;font-stretch:normal;font-size:1.03786px;font-family:sans-serif;-inkscape-font-specification:'sans-serif, Normal';font-variant-ligatures:normal;font-variant-caps:normal;font-variant-numeric:normal;font-variant-east-asian:normal;fill:#ffffff;stroke:#ffffff;stroke-width:0;stroke-miterlimit:4;stroke-dasharray:none"
         x="-3.8487134"
         y="24.031193">EN</tspan></text>
    <text
       xml:space="preserve"
       style="font-style:normal;font-variant:normal;font-weight:normal;font-stretch:normal;font-size:1.03786px;line-height:1.25;font-family:sans-serif;-inkscape-font-specification:'sans-serif, Normal';font-variant-ligatures:normal;font-variant-caps:normal;font-variant-numeric:normal;font-variant-east-asian:normal;fill:#ffffff;stroke:#ffffff;stroke-width:0;stroke-miterlimit:4;stroke-dasharray:none"
       x="-4.5836358"
       y="26.549477"
       id="text74019-0-3-5-0-9"
       transform="matrix(0,-0.98066184,1.0197195,0,0,0)"><tspan
         sodipodi:role="line"
         id="tspan74017-5-80-1-3-0"
         style="font-style:normal;font-variant:normal;font-weight:normal;font-stretch:normal;font-size:1.03786px;font-family:sans-serif;-inkscape-font-specification:'sans-serif, Normal';font-variant-ligatures:normal;font-variant-caps:normal;font-variant-numeric:normal;font-variant-east-asian:normal;fill:#ffffff;stroke:#ffffff;stroke-width:0;stroke-miterlimit:4;stroke-dasharray:none"
         x="-4.5836358"
         y="26.549477">VCC</tspan></text>
    <text
       xml:space="preserve"
       style="font-style:normal;font-variant:normal;font-weight:normal;font-stretch:normal;font-size:1.03786px;line-height:1.25;font-family:sans-serif;-inkscape-font-specification:'sans-serif, Normal';font-variant-ligatures:normal;font-variant-caps:normal;font-variant-numeric:normal;font-variant-east-asian:normal;fill:#ffffff;stroke:#ffffff;stroke-width:0;stroke-miterlimit:4;stroke-dasharray:none"
       x="-4.7413411"
       y="29.074066"
       id="text74019-0-3-5-0-7-9"
       transform="matrix(0,-0.98066184,1.0197195,0,0,0)"><tspan
         sodipodi:role="line"
         id="tspan74017-5-80-1-3-8-8"
         style="font-style:normal;font-variant:normal;font-weight:normal;font-stretch:normal;font-size:1.03786px;font-family:sans-serif;-inkscape-font-specification:'sans-serif, Normal';font-variant-ligatures:normal;font-variant-caps:normal;font-variant-numeric:normal;font-variant-east-asian:normal;fill:#ffffff;stroke:#ffffff;stroke-width:0;stroke-miterlimit:4;stroke-dasharray:none"
         x="-4.7413411"
         y="29.074066">GND</tspan></text>
    <text
       xml:space="preserve"
       style="font-style:normal;font-variant:normal;font-weight:normal;font-stretch:normal;font-size:1.03786px;line-height:1.25;font-family:sans-serif;-inkscape-font-specification:'sans-serif, Normal';font-variant-ligatures:normal;font-variant-caps:normal;font-variant-numeric:normal;font-variant-east-asian:normal;fill:#ffffff;stroke:#ffffff;stroke-width:0;stroke-miterlimit:4;stroke-dasharray:none"
       x="-3.7046008"
       y="16.516418"
       id="text74019-0-3-9-8"
       transform="matrix(0,-0.98066184,1.0197195,0,0,0)"><tspan
         sodipodi:role="line"
         id="tspan74017-5-80-0-5"
         style="font-style:normal;font-variant:normal;font-weight:normal;font-stretch:normal;font-size:1.03786px;font-family:sans-serif;-inkscape-font-specification:'sans-serif, Normal';font-variant-ligatures:normal;font-variant-caps:normal;font-variant-numeric:normal;font-variant-east-asian:normal;fill:#ffffff;stroke:#ffffff;stroke-width:0;stroke-miterlimit:4;stroke-dasharray:none"
         x="-3.7046008"
         y="16.516418">S2</tspan></text>
    <text
       xml:space="preserve"
       style="font-style:normal;font-variant:normal;font-weight:normal;font-stretch:normal;font-size:1.05833px;line-height:1.25;font-family:sans-serif;-inkscape-font-specification:'sans-serif, Normal';font-variant-ligatures:normal;font-variant-caps:normal;font-variant-numeric:normal;font-variant-east-asian:normal;fill:#ffffff;stroke:#ffffff;stroke-width:0;stroke-miterlimit:4;stroke-dasharray:none"
       x="-8.4756203"
       y="39.856396"
       id="text120495"
       transform="rotate(-90)"><tspan
         sodipodi:role="line"
         id="tspan120493"
         style="font-style:normal;font-variant:normal;font-weight:normal;font-stretch:normal;font-size:1.05833px;font-family:sans-serif;-inkscape-font-specification:'sans-serif, Normal';font-variant-ligatures:normal;font-variant-caps:normal;font-variant-numeric:normal;font-variant-east-asian:normal;stroke-width:0"
         x="-8.4756203"
         y="39.856396">Multiplexer</tspan></text>
    <ellipse
       style="fill:#5e5e5e;fill-opacity:0;stroke:#7e7e7e;stroke-width:0.3;stroke-dasharray:none;stroke-opacity:1"
       id="path1883-5-3-5-6-2-9-1-2-7-0-9-6-0-6-6"
       cx="19.032078"
       cy="1.3679248"
       rx="0.80440354"
       ry="0.80440331" />
    <ellipse
       style="fill:#5e5e5e;fill-opacity:0;stroke:#7e7e7e;stroke-width:0.3;stroke-dasharray:none;stroke-opacity:1"
       id="path1883-5-3-5-6-2-9-1-2-7-0-9-6-0-6-6-1"
       cx="16.480398"
       cy="1.348514"
       rx="0.80440354"
       ry="0.80440331" />
    <ellipse
       style="fill:#5e5e5e;fill-opacity:0;stroke:#7e7e7e;stroke-width:0.3;stroke-dasharray:none;stroke-opacity:1"
       id="path1883-5-3-5-6-2-9-1-2-7-0-9-6-0-6-6-1-8"
       cx="13.943315"
       cy="1.3623395"
       rx="0.80440354"
       ry="0.80440331" />
    <ellipse
       style="fill:#5e5e5e;fill-opacity:0;stroke:#7e7e7e;stroke-width:0.3;stroke-dasharray:none;stroke-opacity:1"
       id="path1883-5-3-5-6-2-9-1-2-7-0-9-6-0-6-6-1-8-7"
       cx="11.400701"
       cy="1.3486207"
       rx="0.80440354"
       ry="0.80440331" />
  </g>
</svg>
